<?xml version="1.0" encoding="UTF-8"?><svg id="info" xmlns="http://www.w3.org/2000/svg" viewBox="0 0 200 200"><defs><style>.cls-1{fill:#bedee5;}.cls-1,.cls-2{stroke-width:0px;}.cls-2{fill:#054854;}</style></defs><circle class="cls-1" cx="100" cy="100" r="100"/><path class="cls-2" d="M76.27,165.43c6.97-.65,11.36-1.84,13.18-3.56,1.82-1.72,2.73-6.4,2.73-14.01v-46.58c0-4.23-.29-7.16-.88-8.79-.98-2.67-3.03-4-6.15-4-.72,0-1.42.07-2.1.2-.68.13-2.65.65-5.91,1.56v-3.03l4.2-1.37c11.39-3.71,19.34-6.51,23.83-8.4,1.82-.78,2.99-1.17,3.52-1.17.13.46.2.94.2,1.46v70.12c0,7.42.89,12.08,2.69,13.96,1.79,1.89,5.84,3.09,12.16,3.61v2.73h-47.46v-2.73ZM91.8,34.85c1.95-2.01,4.36-3.01,7.23-3.01s5.19.99,7.18,2.96c1.99,1.98,2.98,4.39,2.98,7.24s-.99,5.17-2.98,7.14c-1.99,1.98-4.38,2.96-7.18,2.96s-5.27-.99-7.23-2.96-2.93-4.36-2.93-7.14.98-5.18,2.93-7.19Z"/></svg>